<svg width="137" height="492" viewBox="0 0 137 492" fill="none" xmlns="http://www.w3.org/2000/svg">
<g opacity="0.1">
<path fill-rule="evenodd" clip-rule="evenodd" d="M426.639 6.33336H179.361L102.932 241.523L302.997 386.872L503.068 241.523L426.639 6.33336ZM99 242.795L176.937 3H429.063L507 242.795L302.997 391L99 242.795Z" fill="white"/>
<path fill-rule="evenodd" clip-rule="evenodd" d="M432.382 -1.90866H173.612L93.6278 244.121L302.997 396.183L512.372 244.121L432.382 -1.90866ZM90.9041 245.963L90 245.301L171.378 -5H434.628L516 245.301L302.997 400L90.9041 245.963Z" fill="white"/>
<path fill-rule="evenodd" clip-rule="evenodd" d="M438.124 -10.1678H167.876L84.3463 246.723L303 405.494L521.66 246.723L438.124 -10.1678ZM81 247.806L165.814 -13H440.191L525 247.806L303 409L81 247.806Z" fill="white"/>
<path fill-rule="evenodd" clip-rule="evenodd" d="M530.958 249.331L443.873 -18.4154H162.133L75.0417 249.331L303 414.811L530.958 249.331ZM72.7604 250.873L72 250.321L159.955 -20.1078L160.249 -21H445.751L534 250.321L303.76 417.453L303 418L72.7604 250.873Z" fill="white"/>
<path fill-rule="evenodd" clip-rule="evenodd" d="M449.618 -26.6688H156.382L65.7484 251.926L303.003 424.116L540.252 251.926L449.618 -26.6688ZM63 252.824L154.688 -29H451.312L543 252.824L303.003 427L63 252.824Z" fill="white"/>
<path fill-rule="evenodd" clip-rule="evenodd" d="M455.357 -34.9222H150.637L56.4434 254.539L303 433.433L549.551 254.539L455.357 -34.9222ZM54.6109 255.777L54 255.339L148.885 -36.2805L149.121 -37H456.879L551.764 254.62L552 255.339L303 436L54.6109 255.777Z" fill="white"/>
<path fill-rule="evenodd" clip-rule="evenodd" d="M461.108 -42.1755H144.892L47.1499 258.135L302.997 443.738L558.85 258.135L461.108 -42.1755ZM45.536 259.223L45 258.831L143.353 -43.3669L143.566 -44H462.434L560.798 258.198L561 258.831L302.997 446L45.536 259.223Z" fill="white"/>
<path fill-rule="evenodd" clip-rule="evenodd" d="M568.132 260.741L466.85 -50.4116H139.156L37.8677 260.741L303 453.049L568.132 260.741ZM36.4727 261.679L36 261.339L137.83 -51.4475L138.009 -52H467.997L569.821 260.792L570 261.339L303.467 454.655L303 455L36.4727 261.679Z" fill="white"/>
<path fill-rule="evenodd" clip-rule="evenodd" d="M472.595 -58.6706H133.405L28.5624 263.343L302.997 462.366L577.432 263.343L472.595 -58.6706ZM27.3863 264.138L27 263.85L132.292 -59.5338L132.436 -60H473.558L578.856 263.395L579 263.85L302.997 464L27.3863 264.138Z" fill="white"/>
<path fill-rule="evenodd" clip-rule="evenodd" d="M586.732 265.947L478.341 -66.9238H127.665L19.2685 265.947L303 471.665L586.732 265.947ZM18.3229 266.586L18 266.35L126.76 -67.6317L126.881 -68H479.125L587.879 265.982L588 266.35L303.323 472.764L303 473L18.3229 266.586Z" fill="white"/>
<path fill-rule="evenodd" clip-rule="evenodd" d="M596.02 269.161L484.081 -75.1814H121.919L9.97458 269.161L302.994 481.974L596.02 269.161ZM9.24797 269.651L9 269.479L121.319 -76H484.681L597 269.479L303.236 482.821L302.994 483L9.24797 269.651Z" fill="white"/>
<path fill-rule="evenodd" clip-rule="evenodd" d="M115.753 -84L115.69 -83.7982L0 271.981L0.173024 272.108L303 492L303.167 491.873L606 271.981L605.942 271.785L490.253 -84H115.753ZM0.674794 271.762L116.18 -83.4293H489.826L605.325 271.762L303 491.279L0.674794 271.762Z" fill="white"/>
</g>
</svg>
